# Blender v2.79 (sub 0) OBJ File: ''
# www.blender.org
v 0.547733 0.113411 -0.365085
v 0.547733 0.113411 0.174531
v -0.016676 0.113411 0.174531
v -0.016676 0.113411 -0.365085
v 0.538606 1.248400 -0.326566
v 0.495337 1.229979 0.005008
v 0.053052 1.327992 0.026506
v 0.133430 1.299746 -0.275650
v 0.599265 2.420435 -0.131088
v 0.591411 2.429488 -0.025941
v 0.255598 2.051214 0.096903
v 0.258866 2.076516 -0.204066
v 0.583980 2.550964 -0.147011
v 0.576126 2.560017 -0.041864
v 0.166904 2.850785 0.046380
v 0.170172 2.806528 -0.252391
v 0.643312 2.131746 -0.223083
v 0.620772 2.087971 0.076592
v 0.554619 2.855939 -0.283544
v 0.532079 2.881917 0.018195
v 0.727796 2.574432 -0.160065
v 0.719942 2.583485 -0.054917
v 0.695843 2.675413 -0.169041
v 0.687989 2.684466 -0.063893
v 0.767854 2.682858 -0.185558
v 0.760000 2.691911 -0.080411
v 0.669823 2.883107 -0.188866
v 0.661969 2.892160 -0.083718
v 0.741834 2.890552 -0.205384
v 0.733980 2.899605 -0.100236
v 0.385727 2.722927 -0.158786
v 0.848762 3.076651 0.177625
v 0.208867 3.076651 0.385543
v -0.186615 3.076653 -0.158786
v 0.208867 3.076651 -0.703115
v 0.848762 3.076651 -0.495197
v 0.562587 3.649001 0.385543
v -0.077308 3.649001 0.177625
v -0.077308 3.649001 -0.495197
v 0.562587 3.649001 -0.703115
v 0.958069 3.648998 -0.158786
v 0.385727 4.002725 -0.158786
v 0.281772 2.818493 0.161160
v 0.657890 2.818493 0.038950
v 0.553936 3.026407 0.358899
v 0.930055 3.026408 -0.158786
v 0.657890 2.818493 -0.356522
v 0.049313 2.818495 -0.158786
v -0.054644 3.026408 0.161161
v 0.281772 2.818493 -0.478732
v -0.054644 3.026408 -0.478733
v 0.553936 3.026407 -0.676471
v 0.994308 3.362826 0.038951
v 0.994308 3.362826 -0.356523
v 0.385727 3.362826 0.481113
v 0.761850 3.362826 0.358903
v -0.222853 3.362826 0.038951
v 0.009604 3.362826 0.358903
v 0.009604 3.362826 -0.676475
v -0.222853 3.362826 -0.356523
v 0.761850 3.362826 -0.676475
v 0.385727 3.362826 -0.798684
v 0.826098 3.699244 0.161161
v 0.217518 3.699245 0.358899
v -0.158601 3.699244 -0.158786
v 0.217518 3.699245 -0.676471
v 0.826098 3.699244 -0.478733
v 0.489682 3.907158 0.161160
v 0.722141 3.907157 -0.158786
v 0.113564 3.907158 0.038950
v 0.113564 3.907158 -0.356522
v 0.489682 3.907158 -0.478732
vt 0.156739 0.725391
vt 0.166468 0.679871
vt 0.171771 0.694289
vt 0.081615 0.440932
vt 0.259737 0.592149
vt 0.206100 0.652166
vt 0.081127 0.837797
vt 0.081311 0.612155
vt 0.210446 0.702406
vt 0.184293 0.767913
vt 0.386881 0.440230
vt 0.387292 0.588022
vt 0.082700 0.961597
vt 0.289458 0.713959
vt 0.235326 0.850038
vt 0.177136 0.897724
vt 0.209565 0.974547
vt 0.200902 0.977261
vt 0.387148 0.720904
vt 0.386255 0.860127
vt 0.117351 0.962424
vt 0.237825 0.912117
vt 0.260934 0.919619
vt 0.386242 0.980937
vt 0.301979 0.980797
vt 0.257447 0.508652
vt 0.192823 0.440503
vt 0.261991 0.931734
vt 0.212654 0.982789
vt 0.272240 0.984659
vt 0.230979 0.984507
vt 0.225446 0.989145
vt 0.228462 0.999895
vt 0.243869 0.999895
vt 0.192581 0.989206
vt 0.207741 0.994328
vt 0.384649 0.386318
vt 0.272536 0.386016
vt 0.279118 0.258855
vt 0.696248 0.386150
vt 0.558889 0.386016
vt 0.600039 0.281000
vt 0.364876 0.211910
vt 0.455251 0.215827
vt 0.522048 0.267353
vt 0.658667 0.285323
vt 0.244501 0.211007
vt 0.182756 0.264547
vt 0.203888 0.210017
vt 0.352953 0.163746
vt 0.300551 0.188254
vt 0.319035 0.157851
vt 0.474673 0.174048
vt 0.416906 0.164255
vt 0.456782 0.146557
vt 0.554442 0.230041
vt 0.512719 0.202877
vt 0.541829 0.202017
vt 0.816586 0.386253
vt 0.265064 0.180558
vt 0.380653 0.137592
vt 0.503471 0.174568
vt 0.587007 0.235285
vt 0.145958 0.205961
vt 0.088694 0.207082
vt 0.088674 0.055863
vt 0.286366 0.154327
vt 0.226343 0.170304
vt 0.270025 0.106277
vt 0.424564 0.055132
vt 0.341129 0.125074
vt 0.350268 0.055732
vt 0.530276 0.177377
vt 0.492500 0.142685
vt 0.556907 0.141533
vt 0.630895 0.239076
vt 0.574830 0.201201
vt 0.650999 0.179189
vt 0.634683 0.055836
vt 0.477899 0.054888
vt 0.242959 0.055473
vt 0.815939 0.054856
vt 0.816669 0.272967
vt 0.089269 0.271838
vt 0.092487 0.386852
vt 0.298076 0.528952
vt 0.268342 0.997394
vn 0.5885 -0.5588 -0.5842
vn -0.6032 -0.5113 0.6121
vn -0.6146 -0.5313 -0.5830
vn 0.6881 -0.0272 0.7251
vn -0.6163 0.0441 0.7862
vn -0.8107 0.1022 0.5764
vn 0.5835 -0.5246 0.6199
vn -0.6594 0.1265 -0.7410
vn 0.6914 0.0209 -0.7221
vn 0.6899 0.1293 0.7122
vn -0.6626 -0.0319 0.7483
vn 0.7079 -0.0136 0.7061
vn -0.6991 0.0633 -0.7121
vn 0.7613 0.0150 -0.6482
vn 0.7760 0.3793 0.5040
vn 0.6625 -0.2637 0.7010
vn -0.4812 0.3191 0.8164
vn -0.7355 -0.1412 -0.6626
vn 0.7103 0.0265 -0.7033
vn 0.9713 -0.0383 0.2347
vn 0.9944 -0.0951 -0.0452
vn 0.7865 0.3402 -0.5154
vn 0.6289 -0.4646 -0.6233
vn 0.7961 -0.0015 0.6051
vn -0.6253 0.0439 -0.7791
vn 0.6942 -0.1802 -0.6968
vn 0.6514 0.0092 -0.7587
vn -0.7486 -0.1553 -0.6446
vn -0.6514 -0.0092 0.7587
vn 0.7486 0.1553 0.6446
vn 0.0000 -1.0000 0.0000
vn 0.4253 -0.8506 0.3090
vn -0.1625 -0.8506 0.5000
vn 0.7236 -0.4472 0.5257
vn 0.8506 -0.5257 0.0000
vn -0.5257 -0.8506 0.0000
vn -0.1625 -0.8506 -0.5000
vn 0.4253 -0.8506 -0.3090
vn 0.9510 0.0000 0.3090
vn -0.2764 -0.4472 0.8506
vn 0.2629 -0.5257 0.8090
vn 0.0000 0.0000 1.0000
vn -0.8944 -0.4472 0.0000
vn -0.6882 -0.5257 0.5000
vn -0.9510 0.0000 0.3090
vn -0.2764 -0.4472 -0.8506
vn -0.6882 -0.5257 -0.5000
vn -0.5878 0.0000 -0.8090
vn 0.7236 -0.4472 -0.5257
vn 0.2629 -0.5257 -0.8090
vn 0.5878 0.0000 -0.8090
vn 0.5878 0.0000 0.8090
vn -0.5878 0.0000 0.8090
vn -0.9510 0.0000 -0.3090
vn 0.0000 0.0000 -1.0000
vn 0.9510 0.0000 -0.3090
vn 0.2764 0.4472 0.8506
vn 0.6882 0.5257 0.5000
vn 0.1625 0.8506 0.5000
vn -0.7236 0.4472 0.5257
vn -0.2629 0.5257 0.8090
vn -0.4253 0.8506 0.3090
vn -0.7236 0.4472 -0.5257
vn -0.8506 0.5257 0.0000
vn -0.4253 0.8506 -0.3090
vn 0.2764 0.4472 -0.8506
vn -0.2629 0.5257 -0.8090
vn 0.1625 0.8506 -0.5000
vn 0.8944 0.4472 0.0000
vn 0.6882 0.5257 -0.5000
vn 0.5257 0.8506 0.0000
vn 0.0000 1.0000 0.0000
s 1
f 1/1/1 3/2/2 4/3/3
f 6/4/4 11/5/5 7/6/6
f 1/1/1 6/7/4 2/8/7
f 6/4/4 3/2/2 2/8/7
f 3/2/2 8/9/8 4/3/3
f 5/10/9 4/3/3 8/9/8
f 11/5/5 20/11/10 15/12/11
f 5/10/9 18/13/12 6/7/4
f 7/6/6 12/14/13 8/9/8
f 5/10/9 12/14/13 17/15/14
f 14/16/15 22/17/16 24/18/17
f 12/14/13 15/12/11 16/19/18
f 17/15/14 16/19/18 19/20/19
f 10/21/20 17/15/14 9/22/21
f 13/23/22 20/24/10 14/25/15
f 10/26/20 20/11/10 18/27/12
f 13/23/22 17/15/14 19/20/19
f 21/28/23 26/29/24 22/17/16
f 9/22/21 22/17/16 10/21/20
f 13/23/22 21/28/23 9/22/21
f 13/23/22 24/30/17 23/31/25
f 21/28/23 23/31/25 25/32/26
f 23/31/25 29/33/27 25/32/26
f 26/29/24 24/18/17 22/17/16
f 24/30/17 27/34/28 23/31/25
f 26/29/24 28/35/29 24/18/17
f 26/29/24 29/33/27 30/36/30
f 31/37/31 44/38/32 43/39/33
f 32/40/34 44/41/32 46/42/35
f 31/37/31 43/39/33 48/43/36
f 31/37/31 48/43/36 50/44/37
f 31/37/31 50/44/37 47/45/38
f 32/40/34 46/42/35 53/46/39
f 33/47/40 45/48/41 55/49/42
f 34/50/43 49/51/44 57/52/45
f 35/53/46 51/54/47 59/55/48
f 36/56/49 52/57/50 61/58/51
f 32/40/34 53/46/39 56/59/52
f 33/47/40 55/49/42 58/60/53
f 34/50/43 57/52/45 60/61/54
f 35/53/46 59/55/48 62/62/55
f 36/56/49 61/58/51 54/63/56
f 37/64/57 63/65/58 68/66/59
f 38/67/60 64/68/61 70/69/62
f 39/70/63 65/71/64 71/72/65
f 40/73/66 66/74/67 72/75/68
f 41/76/69 67/77/70 69/78/71
f 69/78/71 72/75/68 42/79/72
f 69/78/71 67/77/70 72/75/68
f 67/77/70 40/73/66 72/75/68
f 72/75/68 71/80/65 42/79/72
f 72/75/68 66/74/67 71/80/65
f 66/74/67 39/70/63 71/80/65
f 71/72/65 70/69/62 42/81/72
f 71/72/65 65/71/64 70/69/62
f 65/71/64 38/67/60 70/69/62
f 70/69/62 68/66/59 42/81/72
f 70/69/62 64/68/61 68/66/59
f 64/68/61 37/64/57 68/66/59
f 68/82/59 69/78/71 42/79/72
f 68/82/59 63/83/58 69/78/71
f 63/83/58 41/76/69 69/78/71
f 54/63/56 67/77/70 41/76/69
f 54/63/56 61/58/51 67/77/70
f 61/58/51 40/73/66 67/77/70
f 62/62/55 66/74/67 40/73/66
f 62/62/55 59/55/48 66/74/67
f 59/55/48 39/70/63 66/74/67
f 60/61/54 65/71/64 39/70/63
f 60/61/54 57/52/45 65/71/64
f 57/52/45 38/67/60 65/71/64
f 58/60/53 64/68/61 38/67/60
f 58/60/53 55/49/42 64/68/61
f 55/49/42 37/64/57 64/68/61
f 56/84/52 63/65/58 37/64/57
f 56/59/52 53/46/39 63/83/58
f 53/46/39 41/76/69 63/83/58
f 61/58/51 62/62/55 40/73/66
f 61/58/51 52/57/50 62/62/55
f 52/57/50 35/53/46 62/62/55
f 59/55/48 60/61/54 39/70/63
f 59/55/48 51/54/47 60/61/54
f 51/54/47 34/50/43 60/61/54
f 57/52/45 58/60/53 38/67/60
f 57/52/45 49/51/44 58/60/53
f 49/51/44 33/47/40 58/60/53
f 55/49/42 56/84/52 37/64/57
f 55/49/42 45/48/41 56/84/52
f 45/48/41 32/85/34 56/84/52
f 53/46/39 54/63/56 41/76/69
f 53/46/39 46/42/35 54/63/56
f 46/42/35 36/56/49 54/63/56
f 47/45/38 52/57/50 36/56/49
f 47/45/38 50/44/37 52/57/50
f 50/44/37 35/53/46 52/57/50
f 50/44/37 51/54/47 35/53/46
f 50/44/37 48/43/36 51/54/47
f 48/43/36 34/50/43 51/54/47
f 48/43/36 49/51/44 34/50/43
f 48/43/36 43/39/33 49/51/44
f 43/39/33 33/47/40 49/51/44
f 46/42/35 47/45/38 36/56/49
f 46/42/35 44/41/32 47/45/38
f 44/41/32 31/37/31 47/45/38
f 43/39/33 45/48/41 33/47/40
f 43/39/33 44/38/32 45/48/41
f 44/38/32 32/85/34 45/48/41
f 1/1/1 2/8/7 3/2/2
f 6/4/4 18/27/12 11/5/5
f 1/1/1 5/10/9 6/7/4
f 6/4/4 7/6/6 3/2/2
f 3/2/2 7/6/6 8/9/8
f 5/10/9 1/1/1 4/3/3
f 11/5/5 18/27/12 20/11/10
f 5/10/9 17/15/14 18/13/12
f 7/6/6 11/5/5 12/14/13
f 5/10/9 8/9/8 12/14/13
f 14/16/15 10/21/20 22/17/16
f 12/14/13 11/5/5 15/12/11
f 17/15/14 12/14/13 16/19/18
f 10/21/20 18/13/12 17/15/14
f 13/23/22 19/20/19 20/24/10
f 10/26/20 14/86/15 20/11/10
f 13/23/22 9/22/21 17/15/14
f 21/28/23 25/32/26 26/29/24
f 9/22/21 21/28/23 22/17/16
f 13/23/22 23/31/25 21/28/23
f 13/23/22 14/25/15 24/30/17
f 23/31/25 27/34/28 29/33/27
f 24/30/17 28/87/29 27/34/28
f 26/29/24 30/36/30 28/35/29
f 26/29/24 25/32/26 29/33/27
