# Blender v2.79 (sub 0) OBJ File: 'pumpkin.blend'
# www.blender.org
mtllib pumpkin.mtl
v -0.018745 1.610097 0.311970
v -0.147062 1.641506 0.231478
v -0.036714 1.664666 0.427478
v -0.221241 1.709833 0.311726
v -0.036477 1.542511 0.192648
v -0.059366 1.548114 0.178290
v -0.088358 1.693992 0.527752
v -0.266130 1.737506 0.416237
v -0.156785 1.713464 0.544983
v -0.249871 1.736249 0.486591
v -0.035597 1.667315 0.426731
v -0.017628 1.612747 0.311223
v -0.145945 1.644155 0.230731
v -0.220124 1.712482 0.310979
v -0.035360 1.545161 0.191901
v -0.058249 1.550763 0.177543
v -0.265013 1.740155 0.415491
v -0.087241 1.696641 0.527006
v -0.248754 1.738899 0.485844
v -0.155668 1.716114 0.544236
v 0.042321 1.626603 0.015303
v 0.167373 1.627763 0.106357
v 0.083859 1.666266 -0.100214
v 0.263692 1.667935 0.030728
v 0.031113 1.565088 0.138633
v 0.053420 1.565295 0.154876
v 0.149510 1.673662 -0.196221
v 0.322760 1.675270 -0.070072
v 0.221815 1.672771 -0.207598
v 0.312534 1.673613 -0.141544
v 0.083455 1.669163 -0.099696
v 0.041916 1.629500 0.015821
v 0.166969 1.630660 0.106876
v 0.263288 1.670832 0.031246
v 0.030709 1.567985 0.139151
v 0.053016 1.568192 0.155394
v 0.322356 1.678167 -0.069554
v 0.149106 1.676559 -0.195702
v 0.312129 1.676510 -0.141025
v 0.221411 1.675668 -0.207080
v -0.080178 1.573985 0.241230
v -0.090498 1.947142 0.098803
v -0.080178 1.573985 0.109969
v -0.090498 1.849023 0.047729
v 0.051083 1.573985 0.241230
v 0.011294 1.961280 0.098803
v 0.051083 1.573985 0.109969
v 0.011294 1.863161 0.047729
v -0.071789 2.004609 -0.143689
v -0.071789 1.925258 -0.114394
v 0.006049 1.932525 -0.122398
v 0.006049 2.011876 -0.151692
v -0.052821 1.942382 -0.238738
v -0.045518 1.900875 -0.214007
v -0.003111 1.916764 -0.210810
v -0.010414 1.958270 -0.235541
v 0.542589 -0.000605 0.343083
v 0.861911 0.981408 0.541158
v 0.015102 0.595199 1.030341
v -0.508845 -0.007218 0.346137
v 0.014168 0.006692 -0.565908
v 0.861334 0.617694 -0.445370
v 0.007826 1.581720 0.666633
v -0.839340 0.970717 0.546095
v -0.839917 0.607003 -0.440433
v 0.006892 0.993212 -0.929616
v 0.530838 1.595629 -0.245412
v -0.520596 1.589016 -0.242358
v 0.070106 1.627140 0.094528
v 0.086768 1.611642 0.247540
v 0.178537 1.684083 0.053996
v 0.202498 1.661796 0.274036
v -0.021405 1.546877 0.160128
v -0.018433 1.544112 0.187423
v 0.292253 1.705658 0.040377
v 0.315336 1.684186 0.252363
v 0.349114 1.705401 0.086476
v 0.361201 1.694158 0.197477
v 0.177573 1.686867 0.054383
v 0.069142 1.629923 0.094915
v 0.085804 1.614425 0.247927
v 0.201534 1.664579 0.274423
v -0.022370 1.549660 0.160515
v -0.019397 1.546895 0.187810
v 0.314372 1.686969 0.252750
v 0.291288 1.708441 0.040764
v 0.360237 1.696941 0.197864
v 0.348150 1.708184 0.086863
v -0.155134 1.672676 0.123809
v -0.077298 1.645364 -0.007057
v -0.259070 1.740297 0.088208
v -0.147137 1.701020 -0.099986
v -0.051867 1.580917 0.129824
v -0.037983 1.576044 0.106480
v -0.354676 1.770834 0.028971
v -0.246840 1.732995 -0.152334
v -0.371635 1.770607 -0.042238
v -0.315170 1.750793 -0.137174
v -0.257777 1.742963 0.088421
v -0.153841 1.675342 0.124022
v -0.076005 1.648030 -0.006844
v -0.145844 1.703686 -0.099773
v -0.050574 1.583582 0.130037
v -0.036689 1.578710 0.106693
v -0.245547 1.735661 -0.152122
v -0.353383 1.773500 0.029184
v -0.313876 1.753459 -0.136961
v -0.370342 1.773272 -0.042025
vn -0.6042 0.2653 0.7513
vn -0.8059 -0.3402 -0.4844
vn -0.7392 -0.1695 -0.6517
vn 0.8260 -0.3071 -0.4725
vn 0.7820 -0.0264 -0.6227
vn 0.6222 0.3478 0.7014
vn -0.6680 0.5553 0.4954
vn 0.5685 0.6476 0.5074
vn 0.8096 -0.5819 -0.0771
vn 0.6052 0.7723 -0.1933
vn -0.6962 0.6943 -0.1823
vn 0.4587 0.3108 -0.8325
vn -0.5506 0.0117 -0.8347
vn -0.7429 -0.6403 -0.1952
vn 0.7125 -0.5947 -0.3722
vn -0.3471 -0.8548 -0.3857
vn 0.5316 -0.7948 0.2927
vn 0.8509 0.1872 0.4908
vn 0.0041 -0.1990 0.9800
vn 0.8503 -0.1765 -0.4957
vn -0.5198 -0.8014 0.2958
vn 0.0031 -0.7875 -0.6163
vn 0.5198 0.8014 -0.2958
vn -0.0031 0.7875 0.6163
vn -0.8503 0.1765 0.4957
vn -0.8509 -0.1872 -0.4908
vn -0.0041 0.1990 -0.9800
vn -0.5316 0.7948 -0.2927
vn 0.4111 -0.8193 0.3996
vn -0.8412 -0.4439 -0.3087
vn -0.7747 -0.5288 -0.3468
vn -0.3735 -0.7789 -0.5037
vn 0.4365 -0.7845 0.4404
vn -0.9407 -0.3392 -0.0041
vn -0.2752 -0.4483 0.8505
vn 0.2804 -0.6331 0.7215
vn 0.9381 0.3189 -0.1348
vn -0.3159 0.7523 -0.5781
vn 0.8792 0.4606 0.1219
vn 0.1664 0.2091 -0.9636
vn -0.1298 0.5791 -0.8048
vn -0.5033 0.8462 -0.1745
vn 0.6647 0.5393 0.5170
vn 0.1081 0.7407 0.6631
vn -0.3680 0.8557 0.3636
vn 0.8412 0.0440 -0.5389
vn -0.7849 -0.3227 0.5289
vn 0.3145 -0.9465 -0.0715
vn -0.5863 -0.7038 -0.4011
vn 0.6593 -0.6317 0.4077
vn 0.5692 -0.6927 0.4429
vn 0.1035 -0.8142 0.5712
vn -0.5978 -0.6663 -0.4457
vn 0.8081 -0.5787 0.1098
vn 0.2096 -0.5631 -0.7994
vn -0.3839 -0.5822 -0.7166
vn -0.8224 0.5681 0.0294
vn 0.4623 0.6774 0.5722
vn -0.7063 0.6707 -0.2264
vn -0.1801 0.3118 0.9329
vn 0.2180 0.5766 0.7874
vn 0.7003 0.6894 0.1850
vn -0.4472 0.6615 -0.6020
vn 0.1532 0.6951 -0.7024
vn 0.6168 0.6981 -0.3636
vn -0.8376 0.3056 0.4527
vn 0.7064 -0.5575 -0.4359
vn -0.5667 -0.8198 0.0823
vn -0.0217 -0.6207 -0.7837
vn 0.2098 -0.6996 0.6830
vn 0.1303 -0.7640 0.6319
vn -0.2626 -0.8968 0.3561
vn -0.0007 -0.5765 -0.8171
vn 0.5227 -0.6022 0.6034
vn 0.7886 -0.4313 -0.4382
vn 0.3326 -0.4536 -0.8268
vn -0.6335 0.5696 -0.5237
vn -0.1843 0.5693 0.8012
vn -0.3788 0.7099 -0.5937
vn -0.8399 0.1614 0.5181
vn -0.4950 0.4395 0.7495
vn 0.2584 0.6392 0.7243
vn 0.0717 0.7566 -0.6498
vn 0.5438 0.7959 -0.2660
vn 0.6048 0.7370 0.3018
vn -0.9265 0.2430 -0.2874
vn 0.8535 -0.4922 0.1709
vn -0.3514 -0.8129 -0.4645
vn -0.5240 -0.5515 0.6490
vn 0.1729 -0.7391 -0.6510
vn 0.1978 -0.8042 -0.5604
vn 0.3264 -0.9400 -0.0987
vn -0.5560 -0.5032 0.6615
vn -0.1115 -0.6136 -0.7817
vn -0.9335 -0.3362 -0.1242
vn -0.8116 -0.3570 0.4624
vn 0.2437 0.5667 0.7870
vn 0.6915 0.4845 -0.5357
vn 0.0155 0.7299 0.6834
vn 0.9934 0.0576 0.0991
vn 0.8914 0.3382 -0.3017
vn 0.3034 0.5915 -0.7470
vn -0.3688 0.8126 0.4513
vn -0.5044 0.8517 -0.1417
vn -0.2151 0.7489 -0.6268
vn 0.5827 0.2015 0.7873
vn -0.6225 -0.4443 -0.6443
vn -0.0913 -0.7927 0.6026
usemtl Material.002
s 1
f 41//1 44//2 43//3
f 43//3 48//4 47//5
f 48//4 45//6 47//5
f 45//6 42//7 41//1
f 46//8 51//9 52//10
f 49//11 56//12 53//13
f 42//7 50//14 44//2
f 46//8 49//11 42//7
f 48//4 50//14 51//9
f 55//15 53//13 56//12
f 51//9 54//16 55//15
f 52//10 55//15 56//12
f 49//11 54//16 50//14
f 41//1 42//7 44//2
f 43//3 44//2 48//4
f 48//4 46//8 45//6
f 45//6 46//8 42//7
f 46//8 48//4 51//9
f 49//11 52//10 56//12
f 42//7 49//11 50//14
f 46//8 52//10 49//11
f 48//4 44//2 50//14
f 55//15 54//16 53//13
f 51//9 50//14 54//16
f 52//10 51//9 55//15
f 49//11 53//13 54//16
usemtl Material.001
f 57//17 58//18 59//19
f 58//18 57//17 62//20
f 57//17 59//19 60//21
f 57//17 60//21 61//22
f 57//17 61//22 62//20
f 58//18 62//20 67//23
f 59//19 58//18 63//24
f 60//21 59//19 64//25
f 61//22 60//21 65//26
f 62//20 61//22 66//27
f 58//18 67//23 63//24
f 59//19 63//24 64//25
f 60//21 64//25 65//26
f 61//22 65//26 66//27
f 62//20 66//27 67//23
f 63//24 67//23 68//28
f 64//25 63//24 68//28
f 65//26 64//25 68//28
f 66//27 65//26 68//28
f 67//23 66//27 68//28
usemtl Material
f 1//29 4//30 2//31
f 6//32 1//29 2//31
f 3//33 8//34 4//30
f 9//35 8//34 7//36
f 12//37 14//38 11//39
f 12//37 16//40 13//41
f 11//39 17//42 18//43
f 17//42 20//44 18//43
f 8//34 19//45 17//42
f 4//30 13//41 2//31
f 4//30 17//42 14//38
f 1//29 15//46 12//37
f 10//47 20//44 19//45
f 3//33 12//37 11//39
f 6//32 15//46 5//48
f 7//36 20//44 9//35
f 3//33 18//43 7//36
f 2//31 16//40 6//32
f 21//49 24//50 22//51
f 26//52 21//49 22//51
f 23//53 28//54 24//50
f 29//55 28//54 27//56
f 32//57 34//58 31//59
f 32//57 36//60 33//61
f 31//59 37//62 38//63
f 37//62 40//64 38//63
f 28//54 39//65 37//62
f 24//50 33//61 22//51
f 24//50 37//62 34//58
f 21//49 35//66 32//57
f 29//55 39//65 30//67
f 23//53 32//57 31//59
f 25//68 36//60 35//66
f 27//56 40//64 29//55
f 23//53 38//63 27//56
f 22//51 36//60 26//52
f 69//69 72//70 70//71
f 74//72 69//69 70//71
f 71//73 76//74 72//70
f 77//75 76//74 75//76
f 80//77 82//78 79//79
f 80//77 84//80 81//81
f 79//79 85//82 86//83
f 85//82 88//84 86//83
f 76//74 87//85 85//82
f 72//70 81//81 70//71
f 72//70 85//82 82//78
f 69//69 83//86 80//77
f 77//75 87//85 78//87
f 71//73 80//77 79//79
f 73//88 84//80 83//86
f 75//76 88//84 77//75
f 71//73 86//83 75//76
f 70//71 84//80 74//72
f 89//89 92//90 90//91
f 94//92 89//89 90//91
f 91//93 96//94 92//90
f 97//95 96//94 95//96
f 100//97 102//98 99//99
f 100//97 104//100 101//101
f 99//99 105//102 106//103
f 105//102 108//104 106//103
f 96//94 107//105 105//102
f 92//90 101//101 90//91
f 92//90 105//102 102//98
f 89//89 103//106 100//97
f 97//95 107//105 98//107
f 91//93 100//97 99//99
f 93//108 104//100 103//106
f 95//96 108//104 97//95
f 91//93 106//103 95//96
f 90//91 104//100 94//92
f 1//29 3//33 4//30
f 6//32 5//48 1//29
f 3//33 7//36 8//34
f 9//35 10//47 8//34
f 12//37 13//41 14//38
f 12//37 15//46 16//40
f 11//39 14//38 17//42
f 17//42 19//45 20//44
f 8//34 10//47 19//45
f 4//30 14//38 13//41
f 4//30 8//34 17//42
f 1//29 5//48 15//46
f 10//47 9//35 20//44
f 3//33 1//29 12//37
f 6//32 16//40 15//46
f 7//36 18//43 20//44
f 3//33 11//39 18//43
f 2//31 13//41 16//40
f 21//49 23//53 24//50
f 26//52 25//68 21//49
f 23//53 27//56 28//54
f 29//55 30//67 28//54
f 32//57 33//61 34//58
f 32//57 35//66 36//60
f 31//59 34//58 37//62
f 37//62 39//65 40//64
f 28//54 30//67 39//65
f 24//50 34//58 33//61
f 24//50 28//54 37//62
f 21//49 25//68 35//66
f 29//55 40//64 39//65
f 23//53 21//49 32//57
f 25//68 26//52 36//60
f 27//56 38//63 40//64
f 23//53 31//59 38//63
f 22//51 33//61 36//60
f 69//69 71//73 72//70
f 74//72 73//88 69//69
f 71//73 75//76 76//74
f 77//75 78//87 76//74
f 80//77 81//81 82//78
f 80//77 83//86 84//80
f 79//79 82//78 85//82
f 85//82 87//85 88//84
f 76//74 78//87 87//85
f 72//70 82//78 81//81
f 72//70 76//74 85//82
f 69//69 73//88 83//86
f 77//75 88//84 87//85
f 71//73 69//69 80//77
f 73//88 74//72 84//80
f 75//76 86//83 88//84
f 71//73 79//79 86//83
f 70//71 81//81 84//80
f 89//89 91//93 92//90
f 94//92 93//108 89//89
f 91//93 95//96 96//94
f 97//95 98//107 96//94
f 100//97 101//101 102//98
f 100//97 103//106 104//100
f 99//99 102//98 105//102
f 105//102 107//105 108//104
f 96//94 98//107 107//105
f 92//90 102//98 101//101
f 92//90 96//94 105//102
f 89//89 93//108 103//106
f 97//95 108//104 107//105
f 91//93 89//89 100//97
f 93//108 94//92 104//100
f 95//96 106//103 108//104
f 91//93 99//99 106//103
f 90//91 101//101 104//100
